<svg width="1400" height="1500" viewBox="0 0 1400 1500" fill="none" xmlns="http://www.w3.org/2000/svg">
  <rect width="1400" height="1500" fill="#DCE4E9"/>
  <rect width="1400" height="1500" fill="url(#bg)"/>
  <rect y="1016" width="1400" height="484" fill="url(#floor)"/>
  <g filter="url(#blurScene)">
    <rect x="112" y="154" width="1176" height="824" rx="42" fill="#EFF3F5"/>
    <rect x="168" y="214" width="272" height="592" rx="46" fill="#F3F6F8"/>
    <rect x="478" y="166" width="336" height="692" rx="54" fill="#E6C76A"/>
    <rect x="856" y="230" width="212" height="548" rx="42" fill="#D8E1E7"/>
    <rect x="1098" y="196" width="122" height="610" rx="34" fill="#F2DE9B"/>
    <ellipse cx="702" cy="930" rx="486" ry="82" fill="#0A1A2F" fill-opacity="0.18"/>
  </g>
  <rect x="92" y="134" width="1216" height="858" rx="44" fill="url(#veil)"/>
  <circle cx="1158" cy="176" r="86" fill="white" fill-opacity="0.26"/>
  <defs>
    <filter id="blurScene" x="72" y="126" width="1276" height="926" filterUnits="userSpaceOnUse" color-interpolation-filters="sRGB">
      <feGaussianBlur stdDeviation="18"/>
    </filter>
    <linearGradient id="bg" x1="700" y1="0" x2="700" y2="1500" gradientUnits="userSpaceOnUse">
      <stop stop-color="#EEF3F6"/>
      <stop offset="1" stop-color="#C8D3DB"/>
    </linearGradient>
    <linearGradient id="floor" x1="700" y1="1016" x2="700" y2="1500" gradientUnits="userSpaceOnUse">
      <stop stop-color="#AAB7C1"/>
      <stop offset="1" stop-color="#CDD6DC"/>
    </linearGradient>
    <linearGradient id="veil" x1="700" y1="134" x2="700" y2="992" gradientUnits="userSpaceOnUse">
      <stop stop-color="white" stop-opacity="0.24"/>
      <stop offset="1" stop-color="white" stop-opacity="0"/>
    </linearGradient>
  </defs>
</svg>
