<svg width="1200" height="900" viewBox="0 0 1200 900" fill="none" xmlns="http://www.w3.org/2000/svg">
  <rect width="1200" height="900" fill="#DCE4E9"/>
  <rect width="1200" height="900" fill="url(#bg)"/>
  <rect x="84" y="98" width="1032" height="704" rx="42" fill="#EEF3F5"/>
  <rect x="144" y="146" width="912" height="576" rx="32" fill="#F8FAFB"/>
  <rect x="144" y="146" width="912" height="576" rx="32" fill="url(#shine)"/>
  <g filter="url(#blurC)">
    <rect x="212" y="218" width="228" height="374" rx="34" fill="#F4D67A"/>
    <rect x="492" y="204" width="228" height="388" rx="34" fill="#EBF0F4"/>
    <rect x="772" y="228" width="228" height="346" rx="34" fill="#F7DE8E"/>
    <path d="M266 292C266 246.712 302.712 210 348 210H304C349.288 210 386 246.712 386 292V334H266V292Z" fill="#D4A017" fill-opacity="0.36"/>
    <path d="M546 278C546 232.712 582.712 196 628 196H584C629.288 196 666 232.712 666 278V320H546V278Z" fill="#C8D1D9"/>
    <path d="M826 302C826 256.712 862.712 220 908 220H864C909.288 220 946 256.712 946 302V344H826V302Z" fill="#D4A017" fill-opacity="0.36"/>
  </g>
  <rect x="176" y="748" width="848" height="30" rx="15" fill="#1E293B" fill-opacity="0.22"/>
  <defs>
    <filter id="blurC" x="172" y="156" width="868" height="476" filterUnits="userSpaceOnUse" color-interpolation-filters="sRGB">
      <feGaussianBlur stdDeviation="10"/>
    </filter>
    <linearGradient id="bg" x1="600" y1="0" x2="600" y2="900" gradientUnits="userSpaceOnUse">
      <stop stop-color="#EFF4F7"/>
      <stop offset="1" stop-color="#CBD6DD"/>
    </linearGradient>
    <linearGradient id="shine" x1="600" y1="146" x2="600" y2="722" gradientUnits="userSpaceOnUse">
      <stop stop-color="#C7D1D8" stop-opacity="0.48"/>
      <stop offset="1" stop-color="white" stop-opacity="0"/>
    </linearGradient>
  </defs>
</svg>
