<svg width="1200" height="900" viewBox="0 0 1200 900" fill="none" xmlns="http://www.w3.org/2000/svg">
  <rect width="1200" height="900" fill="#DCE4E9"/>
  <rect width="1200" height="900" fill="url(#bg)"/>
  <rect x="70" y="88" width="1060" height="724" rx="42" fill="#EEF2F4"/>
  <rect x="70" y="88" width="1060" height="724" rx="42" fill="url(#light)"/>
  <rect x="132" y="140" width="936" height="590" rx="32" fill="#F7FAFB"/>
  <rect x="132" y="140" width="936" height="590" rx="32" fill="url(#window)"/>
  <g filter="url(#blurA)">
    <rect x="190" y="278" width="212" height="286" rx="34" fill="#F8FBFD"/>
    <rect x="450" y="228" width="258" height="352" rx="38" fill="#F4D97A"/>
    <rect x="760" y="258" width="172" height="264" rx="30" fill="#E3EAF0"/>
  </g>
  <rect x="132" y="752" width="936" height="34" rx="17" fill="#1E293B" fill-opacity="0.28"/>
  <defs>
    <filter id="blurA" x="150" y="188" width="822" height="432" filterUnits="userSpaceOnUse" color-interpolation-filters="sRGB">
      <feGaussianBlur stdDeviation="14"/>
    </filter>
    <linearGradient id="bg" x1="600" y1="0" x2="600" y2="900" gradientUnits="userSpaceOnUse">
      <stop stop-color="#EEF3F6"/>
      <stop offset="1" stop-color="#C8D3DB"/>
    </linearGradient>
    <linearGradient id="light" x1="600" y1="88" x2="600" y2="812" gradientUnits="userSpaceOnUse">
      <stop stop-color="white" stop-opacity="0.35"/>
      <stop offset="1" stop-color="white" stop-opacity="0"/>
    </linearGradient>
    <linearGradient id="window" x1="600" y1="140" x2="600" y2="730" gradientUnits="userSpaceOnUse">
      <stop stop-color="#C7D1D8" stop-opacity="0.52"/>
      <stop offset="1" stop-color="white" stop-opacity="0"/>
    </linearGradient>
  </defs>
</svg>
